<?xml version="1.0" encoding="utf-8"?>
<!-- Generator: Adobe Illustrator 22.0.1, SVG Export Plug-In . SVG Version: 6.00 Build 0)  -->
<svg version="1.1" id="Layer_1" xmlns="http://www.w3.org/2000/svg" xmlns:xlink="http://www.w3.org/1999/xlink" x="0px" y="0px"
	 viewBox="0 0 490.8 359.3" style="enable-background:new 0 0 490.8 359.3;" xml:space="preserve">
<style type="text/css">
	.st0{fill:#FFFFFF;stroke:#7278B2;stroke-width:2;stroke-miterlimit:10;}
	.st1{opacity:0.15;}
	.st2{fill:none;stroke:#000000;stroke-miterlimit:10;}
	.st3{fill:none;stroke:#F1BF98;stroke-width:4;stroke-miterlimit:10;}
	.st4{fill:none;stroke:#FF6F90;stroke-width:4;stroke-miterlimit:10;}
	.st5{fill:none;stroke:#7278B2;stroke-width:4;stroke-miterlimit:10;}
	.st6{fill:none;stroke:#7278B2;stroke-width:2;stroke-miterlimit:10;}
	.st7{fill:#F1BF98;stroke:#7278B2;stroke-width:2;stroke-miterlimit:10;}
	.st8{fill:#F1D79E;stroke:#7278B2;stroke-width:2;stroke-miterlimit:10;}
</style>
<rect x="12.9" y="44.2" class="st0" width="468.6" height="305"/>
<g class="st1">
	<rect x="13.4" y="44.7" class="st2" width="20.3" height="20.3"/>
	<rect x="33.8" y="44.7" class="st2" width="20.3" height="20.3"/>
	<rect x="54.1" y="44.7" class="st2" width="20.3" height="20.3"/>
	<rect x="74.4" y="44.7" class="st2" width="20.3" height="20.3"/>
	<rect x="94.8" y="44.7" class="st2" width="20.3" height="20.3"/>
	<rect x="115.1" y="44.7" class="st2" width="20.3" height="20.3"/>
	<rect x="135.4" y="44.7" class="st2" width="20.3" height="20.3"/>
	<rect x="155.7" y="44.7" class="st2" width="20.3" height="20.3"/>
	<rect x="176.1" y="44.7" class="st2" width="20.3" height="20.3"/>
	<rect x="196.4" y="44.7" class="st2" width="20.3" height="20.3"/>
	<rect x="216.7" y="44.7" class="st2" width="20.3" height="20.3"/>
	<rect x="237.1" y="44.7" class="st2" width="20.3" height="20.3"/>
	<rect x="257.4" y="44.7" class="st2" width="20.3" height="20.3"/>
	<rect x="277.7" y="44.7" class="st2" width="20.3" height="20.3"/>
	<rect x="298.1" y="44.7" class="st2" width="20.3" height="20.3"/>
	<rect x="318.4" y="44.7" class="st2" width="20.3" height="20.3"/>
	<rect x="338.7" y="44.7" class="st2" width="20.3" height="20.3"/>
	<rect x="359" y="44.7" class="st2" width="20.3" height="20.3"/>
	<rect x="379.4" y="44.7" class="st2" width="20.3" height="20.3"/>
	<rect x="399.7" y="44.7" class="st2" width="20.3" height="20.3"/>
	<rect x="420" y="44.7" class="st2" width="20.3" height="20.3"/>
	<rect x="440.4" y="44.7" class="st2" width="20.3" height="20.3"/>
	<rect x="460.7" y="44.7" class="st2" width="20.3" height="20.3"/>
	<rect x="13.4" y="64.9" class="st2" width="20.3" height="20.3"/>
	<rect x="33.8" y="64.9" class="st2" width="20.3" height="20.3"/>
	<rect x="54.1" y="64.9" class="st2" width="20.3" height="20.3"/>
	<rect x="74.4" y="64.9" class="st2" width="20.3" height="20.3"/>
	<rect x="94.8" y="64.9" class="st2" width="20.3" height="20.3"/>
	<rect x="115.1" y="64.9" class="st2" width="20.3" height="20.3"/>
	<rect x="135.4" y="64.9" class="st2" width="20.3" height="20.3"/>
	<rect x="155.7" y="64.9" class="st2" width="20.3" height="20.3"/>
	<rect x="176.1" y="64.9" class="st2" width="20.3" height="20.3"/>
	<rect x="196.4" y="64.9" class="st2" width="20.3" height="20.3"/>
	<rect x="216.7" y="64.9" class="st2" width="20.3" height="20.3"/>
	<rect x="237.1" y="64.9" class="st2" width="20.3" height="20.3"/>
	<rect x="257.4" y="64.9" class="st2" width="20.3" height="20.3"/>
	<rect x="277.7" y="64.9" class="st2" width="20.3" height="20.3"/>
	<rect x="298.1" y="64.9" class="st2" width="20.3" height="20.3"/>
	<rect x="318.4" y="64.9" class="st2" width="20.3" height="20.3"/>
	<rect x="338.7" y="64.9" class="st2" width="20.3" height="20.3"/>
	<rect x="359" y="64.9" class="st2" width="20.3" height="20.3"/>
	<rect x="379.4" y="64.9" class="st2" width="20.3" height="20.3"/>
	<rect x="399.7" y="64.9" class="st2" width="20.3" height="20.3"/>
	<rect x="420" y="64.9" class="st2" width="20.3" height="20.3"/>
	<rect x="440.4" y="64.9" class="st2" width="20.3" height="20.3"/>
	<rect x="460.7" y="64.9" class="st2" width="20.3" height="20.3"/>
	<rect x="13.4" y="85.2" class="st2" width="20.3" height="20.3"/>
	<rect x="33.8" y="85.2" class="st2" width="20.3" height="20.3"/>
	<rect x="54.1" y="85.2" class="st2" width="20.3" height="20.3"/>
	<rect x="74.4" y="85.2" class="st2" width="20.3" height="20.3"/>
	<rect x="94.8" y="85.2" class="st2" width="20.3" height="20.3"/>
	<rect x="115.1" y="85.2" class="st2" width="20.3" height="20.3"/>
	<rect x="135.4" y="85.2" class="st2" width="20.3" height="20.3"/>
	<rect x="155.7" y="85.2" class="st2" width="20.3" height="20.3"/>
	<rect x="176.1" y="85.2" class="st2" width="20.3" height="20.3"/>
	<rect x="196.4" y="85.2" class="st2" width="20.3" height="20.3"/>
	<rect x="216.7" y="85.2" class="st2" width="20.3" height="20.3"/>
	<rect x="237.1" y="85.2" class="st2" width="20.3" height="20.3"/>
	<rect x="257.4" y="85.2" class="st2" width="20.3" height="20.3"/>
	<rect x="277.7" y="85.2" class="st2" width="20.3" height="20.3"/>
	<rect x="298.1" y="85.2" class="st2" width="20.3" height="20.3"/>
	<rect x="318.4" y="85.2" class="st2" width="20.3" height="20.3"/>
	<rect x="338.7" y="85.2" class="st2" width="20.3" height="20.3"/>
	<rect x="359" y="85.2" class="st2" width="20.3" height="20.3"/>
	<rect x="379.4" y="85.2" class="st2" width="20.3" height="20.3"/>
	<rect x="399.7" y="85.2" class="st2" width="20.3" height="20.3"/>
	<rect x="420" y="85.2" class="st2" width="20.3" height="20.3"/>
	<rect x="440.4" y="85.2" class="st2" width="20.3" height="20.3"/>
	<rect x="460.7" y="85.2" class="st2" width="20.3" height="20.3"/>
	<rect x="13.4" y="105.5" class="st2" width="20.3" height="20.3"/>
	<rect x="33.8" y="105.5" class="st2" width="20.3" height="20.3"/>
	<rect x="54.1" y="105.5" class="st2" width="20.3" height="20.3"/>
	<rect x="74.4" y="105.5" class="st2" width="20.3" height="20.3"/>
	<rect x="94.8" y="105.5" class="st2" width="20.3" height="20.3"/>
	<rect x="115.1" y="105.5" class="st2" width="20.3" height="20.3"/>
	<rect x="135.4" y="105.5" class="st2" width="20.3" height="20.3"/>
	<rect x="155.7" y="105.5" class="st2" width="20.3" height="20.3"/>
	<rect x="176.1" y="105.5" class="st2" width="20.3" height="20.3"/>
	<rect x="196.4" y="105.5" class="st2" width="20.3" height="20.3"/>
	<rect x="216.7" y="105.5" class="st2" width="20.3" height="20.3"/>
	<rect x="237.1" y="105.5" class="st2" width="20.3" height="20.3"/>
	<rect x="257.4" y="105.5" class="st2" width="20.3" height="20.3"/>
	<rect x="277.7" y="105.5" class="st2" width="20.3" height="20.3"/>
	<rect x="298.1" y="105.5" class="st2" width="20.3" height="20.3"/>
	<rect x="318.4" y="105.5" class="st2" width="20.3" height="20.3"/>
	<rect x="338.7" y="105.5" class="st2" width="20.3" height="20.3"/>
	<rect x="359" y="105.5" class="st2" width="20.3" height="20.3"/>
	<rect x="379.4" y="105.5" class="st2" width="20.3" height="20.3"/>
	<rect x="399.7" y="105.5" class="st2" width="20.3" height="20.3"/>
	<rect x="420" y="105.5" class="st2" width="20.3" height="20.3"/>
	<rect x="440.4" y="105.5" class="st2" width="20.3" height="20.3"/>
	<rect x="460.7" y="105.5" class="st2" width="20.3" height="20.3"/>
	<rect x="13.4" y="125.7" class="st2" width="20.3" height="20.3"/>
	<rect x="33.8" y="125.7" class="st2" width="20.3" height="20.3"/>
	<rect x="54.1" y="125.7" class="st2" width="20.3" height="20.3"/>
	<rect x="74.4" y="125.7" class="st2" width="20.3" height="20.3"/>
	<rect x="94.8" y="125.7" class="st2" width="20.3" height="20.3"/>
	<rect x="115.1" y="125.7" class="st2" width="20.3" height="20.3"/>
	<rect x="135.4" y="125.7" class="st2" width="20.3" height="20.3"/>
	<rect x="155.7" y="125.7" class="st2" width="20.3" height="20.3"/>
	<rect x="176.1" y="125.7" class="st2" width="20.3" height="20.3"/>
	<rect x="196.4" y="125.7" class="st2" width="20.3" height="20.3"/>
	<rect x="216.7" y="125.7" class="st2" width="20.3" height="20.3"/>
	<rect x="237.1" y="125.7" class="st2" width="20.3" height="20.3"/>
	<rect x="257.4" y="125.7" class="st2" width="20.3" height="20.3"/>
	<rect x="277.7" y="125.7" class="st2" width="20.3" height="20.3"/>
	<rect x="298.1" y="125.7" class="st2" width="20.3" height="20.3"/>
	<rect x="318.4" y="125.7" class="st2" width="20.3" height="20.3"/>
	<rect x="338.7" y="125.7" class="st2" width="20.3" height="20.3"/>
	<rect x="359" y="125.7" class="st2" width="20.3" height="20.3"/>
	<rect x="379.4" y="125.7" class="st2" width="20.3" height="20.3"/>
	<rect x="399.7" y="125.7" class="st2" width="20.3" height="20.3"/>
	<rect x="420" y="125.7" class="st2" width="20.3" height="20.3"/>
	<rect x="440.4" y="125.7" class="st2" width="20.3" height="20.3"/>
	<rect x="460.7" y="125.7" class="st2" width="20.3" height="20.3"/>
	<rect x="13.4" y="146" class="st2" width="20.3" height="20.3"/>
	<rect x="33.8" y="146" class="st2" width="20.3" height="20.3"/>
	<rect x="54.1" y="146" class="st2" width="20.3" height="20.3"/>
	<rect x="74.4" y="146" class="st2" width="20.3" height="20.3"/>
	<rect x="94.8" y="146" class="st2" width="20.3" height="20.3"/>
	<rect x="115.1" y="146" class="st2" width="20.3" height="20.3"/>
	<rect x="135.4" y="146" class="st2" width="20.3" height="20.3"/>
	<rect x="155.7" y="146" class="st2" width="20.3" height="20.3"/>
	<rect x="176.1" y="146" class="st2" width="20.3" height="20.3"/>
	<rect x="196.4" y="146" class="st2" width="20.3" height="20.3"/>
	<rect x="216.7" y="146" class="st2" width="20.3" height="20.3"/>
	<rect x="237.1" y="146" class="st2" width="20.3" height="20.3"/>
	<rect x="257.4" y="146" class="st2" width="20.3" height="20.3"/>
	<rect x="277.7" y="146" class="st2" width="20.3" height="20.3"/>
	<rect x="298.1" y="146" class="st2" width="20.3" height="20.3"/>
	<rect x="318.4" y="146" class="st2" width="20.3" height="20.3"/>
	<rect x="338.7" y="146" class="st2" width="20.3" height="20.3"/>
	<rect x="359" y="146" class="st2" width="20.3" height="20.3"/>
	<rect x="379.4" y="146" class="st2" width="20.3" height="20.3"/>
	<rect x="399.7" y="146" class="st2" width="20.3" height="20.3"/>
	<rect x="420" y="146" class="st2" width="20.3" height="20.3"/>
	<rect x="440.4" y="146" class="st2" width="20.3" height="20.3"/>
	<rect x="460.7" y="146" class="st2" width="20.3" height="20.3"/>
	<rect x="13.4" y="166.3" class="st2" width="20.3" height="20.3"/>
	<rect x="33.8" y="166.3" class="st2" width="20.3" height="20.3"/>
	<rect x="54.1" y="166.3" class="st2" width="20.3" height="20.3"/>
	<rect x="74.4" y="166.3" class="st2" width="20.3" height="20.3"/>
	<rect x="94.8" y="166.3" class="st2" width="20.3" height="20.3"/>
	<rect x="115.1" y="166.3" class="st2" width="20.3" height="20.3"/>
	<rect x="135.4" y="166.3" class="st2" width="20.3" height="20.3"/>
	<rect x="155.7" y="166.3" class="st2" width="20.3" height="20.3"/>
	<rect x="176.1" y="166.3" class="st2" width="20.3" height="20.3"/>
	<rect x="196.4" y="166.3" class="st2" width="20.3" height="20.3"/>
	<rect x="216.7" y="166.3" class="st2" width="20.3" height="20.3"/>
	<rect x="237.1" y="166.3" class="st2" width="20.3" height="20.3"/>
	<rect x="257.4" y="166.3" class="st2" width="20.3" height="20.3"/>
	<rect x="277.7" y="166.3" class="st2" width="20.3" height="20.3"/>
	<rect x="298.1" y="166.3" class="st2" width="20.3" height="20.3"/>
	<rect x="318.4" y="166.3" class="st2" width="20.3" height="20.3"/>
	<rect x="338.7" y="166.3" class="st2" width="20.3" height="20.3"/>
	<rect x="359" y="166.3" class="st2" width="20.3" height="20.3"/>
	<rect x="379.4" y="166.3" class="st2" width="20.3" height="20.3"/>
	<rect x="399.7" y="166.3" class="st2" width="20.3" height="20.3"/>
	<rect x="420" y="166.3" class="st2" width="20.3" height="20.3"/>
	<rect x="440.4" y="166.3" class="st2" width="20.3" height="20.3"/>
	<rect x="460.7" y="166.3" class="st2" width="20.3" height="20.3"/>
	<rect x="13.4" y="186.5" class="st2" width="20.3" height="20.3"/>
	<rect x="33.8" y="186.5" class="st2" width="20.3" height="20.3"/>
	<rect x="54.1" y="186.5" class="st2" width="20.3" height="20.3"/>
	<rect x="74.4" y="186.5" class="st2" width="20.3" height="20.3"/>
	<rect x="94.8" y="186.5" class="st2" width="20.3" height="20.3"/>
	<rect x="115.1" y="186.5" class="st2" width="20.3" height="20.3"/>
	<rect x="135.4" y="186.5" class="st2" width="20.3" height="20.3"/>
	<rect x="155.7" y="186.5" class="st2" width="20.3" height="20.3"/>
	<rect x="176.1" y="186.5" class="st2" width="20.3" height="20.3"/>
	<rect x="196.4" y="186.5" class="st2" width="20.3" height="20.3"/>
	<rect x="216.7" y="186.5" class="st2" width="20.3" height="20.3"/>
	<rect x="237.1" y="186.5" class="st2" width="20.3" height="20.3"/>
	<rect x="257.4" y="186.5" class="st2" width="20.3" height="20.3"/>
	<rect x="277.7" y="186.5" class="st2" width="20.3" height="20.3"/>
	<rect x="298.1" y="186.5" class="st2" width="20.3" height="20.3"/>
	<rect x="318.4" y="186.5" class="st2" width="20.3" height="20.3"/>
	<rect x="338.7" y="186.5" class="st2" width="20.3" height="20.3"/>
	<rect x="359" y="186.5" class="st2" width="20.3" height="20.3"/>
	<rect x="379.4" y="186.5" class="st2" width="20.3" height="20.3"/>
	<rect x="399.7" y="186.5" class="st2" width="20.3" height="20.3"/>
	<rect x="420" y="186.5" class="st2" width="20.3" height="20.3"/>
	<rect x="440.4" y="186.5" class="st2" width="20.3" height="20.3"/>
	<rect x="460.7" y="186.5" class="st2" width="20.3" height="20.3"/>
	<rect x="13.4" y="206.8" class="st2" width="20.3" height="20.3"/>
	<rect x="33.8" y="206.8" class="st2" width="20.3" height="20.3"/>
	<rect x="54.1" y="206.8" class="st2" width="20.3" height="20.3"/>
	<rect x="74.4" y="206.8" class="st2" width="20.3" height="20.3"/>
	<rect x="94.8" y="206.8" class="st2" width="20.3" height="20.3"/>
	<rect x="115.1" y="206.8" class="st2" width="20.3" height="20.3"/>
	<rect x="135.4" y="206.8" class="st2" width="20.3" height="20.3"/>
	<rect x="155.7" y="206.8" class="st2" width="20.3" height="20.3"/>
	<rect x="176.1" y="206.8" class="st2" width="20.3" height="20.3"/>
	<rect x="196.4" y="206.8" class="st2" width="20.3" height="20.3"/>
	<rect x="216.7" y="206.8" class="st2" width="20.3" height="20.3"/>
	<rect x="237.1" y="206.8" class="st2" width="20.3" height="20.3"/>
	<rect x="257.4" y="206.8" class="st2" width="20.3" height="20.3"/>
	<rect x="277.7" y="206.8" class="st2" width="20.3" height="20.3"/>
	<rect x="298.1" y="206.8" class="st2" width="20.3" height="20.3"/>
	<rect x="318.4" y="206.8" class="st2" width="20.3" height="20.3"/>
	<rect x="338.7" y="206.8" class="st2" width="20.3" height="20.3"/>
	<rect x="359" y="206.8" class="st2" width="20.3" height="20.3"/>
	<rect x="379.4" y="206.8" class="st2" width="20.3" height="20.3"/>
	<rect x="399.7" y="206.8" class="st2" width="20.3" height="20.3"/>
	<rect x="420" y="206.8" class="st2" width="20.3" height="20.3"/>
	<rect x="440.4" y="206.8" class="st2" width="20.3" height="20.3"/>
	<rect x="460.7" y="206.8" class="st2" width="20.3" height="20.3"/>
	<rect x="13.4" y="227.1" class="st2" width="20.3" height="20.3"/>
	<rect x="33.8" y="227.1" class="st2" width="20.3" height="20.3"/>
	<rect x="54.1" y="227.1" class="st2" width="20.3" height="20.3"/>
	<rect x="74.4" y="227.1" class="st2" width="20.3" height="20.3"/>
	<rect x="94.8" y="227.1" class="st2" width="20.3" height="20.3"/>
	<rect x="115.1" y="227.1" class="st2" width="20.3" height="20.3"/>
	<rect x="135.4" y="227.1" class="st2" width="20.3" height="20.3"/>
	<rect x="155.7" y="227.1" class="st2" width="20.3" height="20.3"/>
	<rect x="176.1" y="227.1" class="st2" width="20.3" height="20.3"/>
	<rect x="196.4" y="227.1" class="st2" width="20.3" height="20.3"/>
	<rect x="216.7" y="227.1" class="st2" width="20.3" height="20.3"/>
	<rect x="237.1" y="227.1" class="st2" width="20.3" height="20.3"/>
	<rect x="257.4" y="227.1" class="st2" width="20.3" height="20.3"/>
	<rect x="277.7" y="227.1" class="st2" width="20.3" height="20.3"/>
	<rect x="298.1" y="227.1" class="st2" width="20.3" height="20.3"/>
	<rect x="318.4" y="227.1" class="st2" width="20.3" height="20.3"/>
	<rect x="338.7" y="227.1" class="st2" width="20.3" height="20.3"/>
	<rect x="359" y="227.1" class="st2" width="20.3" height="20.3"/>
	<rect x="379.4" y="227.1" class="st2" width="20.3" height="20.3"/>
	<rect x="399.7" y="227.1" class="st2" width="20.3" height="20.3"/>
	<rect x="420" y="227.1" class="st2" width="20.3" height="20.3"/>
	<rect x="440.4" y="227.1" class="st2" width="20.3" height="20.3"/>
	<rect x="460.7" y="227.1" class="st2" width="20.3" height="20.3"/>
	<rect x="13.4" y="247.3" class="st2" width="20.3" height="20.3"/>
	<rect x="33.8" y="247.3" class="st2" width="20.3" height="20.3"/>
	<rect x="54.1" y="247.3" class="st2" width="20.3" height="20.3"/>
	<rect x="74.4" y="247.3" class="st2" width="20.3" height="20.3"/>
	<rect x="94.8" y="247.3" class="st2" width="20.3" height="20.3"/>
	<rect x="115.1" y="247.3" class="st2" width="20.3" height="20.3"/>
	<rect x="135.4" y="247.3" class="st2" width="20.3" height="20.3"/>
	<rect x="155.7" y="247.3" class="st2" width="20.3" height="20.3"/>
	<rect x="176.1" y="247.3" class="st2" width="20.3" height="20.3"/>
	<rect x="196.4" y="247.3" class="st2" width="20.3" height="20.3"/>
	<rect x="216.7" y="247.3" class="st2" width="20.3" height="20.3"/>
	<rect x="237.1" y="247.3" class="st2" width="20.3" height="20.3"/>
	<rect x="257.4" y="247.3" class="st2" width="20.3" height="20.3"/>
	<rect x="277.7" y="247.3" class="st2" width="20.3" height="20.3"/>
	<rect x="298.1" y="247.3" class="st2" width="20.3" height="20.3"/>
	<rect x="318.4" y="247.3" class="st2" width="20.3" height="20.3"/>
	<rect x="338.7" y="247.3" class="st2" width="20.3" height="20.3"/>
	<rect x="359" y="247.3" class="st2" width="20.3" height="20.3"/>
	<rect x="379.4" y="247.3" class="st2" width="20.3" height="20.3"/>
	<rect x="399.7" y="247.3" class="st2" width="20.3" height="20.3"/>
	<rect x="420" y="247.3" class="st2" width="20.3" height="20.3"/>
	<rect x="440.4" y="247.3" class="st2" width="20.3" height="20.3"/>
	<rect x="460.7" y="247.3" class="st2" width="20.3" height="20.3"/>
	<rect x="13.4" y="267.6" class="st2" width="20.3" height="20.3"/>
	<rect x="33.8" y="267.6" class="st2" width="20.3" height="20.3"/>
	<rect x="54.1" y="267.6" class="st2" width="20.3" height="20.3"/>
	<rect x="74.4" y="267.6" class="st2" width="20.3" height="20.3"/>
	<rect x="94.8" y="267.6" class="st2" width="20.3" height="20.3"/>
	<rect x="115.1" y="267.6" class="st2" width="20.3" height="20.3"/>
	<rect x="135.4" y="267.6" class="st2" width="20.3" height="20.3"/>
	<rect x="155.7" y="267.6" class="st2" width="20.3" height="20.3"/>
	<rect x="176.1" y="267.6" class="st2" width="20.3" height="20.3"/>
	<rect x="196.4" y="267.6" class="st2" width="20.3" height="20.3"/>
	<rect x="216.7" y="267.6" class="st2" width="20.3" height="20.3"/>
	<rect x="237.1" y="267.6" class="st2" width="20.3" height="20.3"/>
	<rect x="257.4" y="267.6" class="st2" width="20.3" height="20.3"/>
	<rect x="277.7" y="267.6" class="st2" width="20.3" height="20.3"/>
	<rect x="298.1" y="267.6" class="st2" width="20.3" height="20.3"/>
	<rect x="318.4" y="267.6" class="st2" width="20.3" height="20.3"/>
	<rect x="338.7" y="267.6" class="st2" width="20.3" height="20.3"/>
	<rect x="359" y="267.6" class="st2" width="20.3" height="20.3"/>
	<rect x="379.4" y="267.6" class="st2" width="20.3" height="20.3"/>
	<rect x="399.7" y="267.6" class="st2" width="20.3" height="20.3"/>
	<rect x="420" y="267.6" class="st2" width="20.3" height="20.3"/>
	<rect x="440.4" y="267.6" class="st2" width="20.3" height="20.3"/>
	<rect x="460.7" y="267.6" class="st2" width="20.3" height="20.3"/>
	<rect x="13.4" y="287.9" class="st2" width="20.3" height="20.3"/>
	<rect x="33.8" y="287.9" class="st2" width="20.3" height="20.3"/>
	<rect x="54.1" y="287.9" class="st2" width="20.3" height="20.3"/>
	<rect x="74.4" y="287.9" class="st2" width="20.3" height="20.3"/>
	<rect x="94.8" y="287.9" class="st2" width="20.3" height="20.3"/>
	<rect x="115.1" y="287.9" class="st2" width="20.3" height="20.3"/>
	<rect x="135.4" y="287.9" class="st2" width="20.3" height="20.3"/>
	<rect x="155.7" y="287.9" class="st2" width="20.3" height="20.3"/>
	<rect x="176.1" y="287.9" class="st2" width="20.3" height="20.3"/>
	<rect x="196.4" y="287.9" class="st2" width="20.3" height="20.3"/>
	<rect x="216.7" y="287.9" class="st2" width="20.3" height="20.3"/>
	<rect x="237.1" y="287.9" class="st2" width="20.3" height="20.3"/>
	<rect x="257.4" y="287.9" class="st2" width="20.3" height="20.3"/>
	<rect x="277.7" y="287.9" class="st2" width="20.3" height="20.3"/>
	<rect x="298.1" y="287.9" class="st2" width="20.3" height="20.3"/>
	<rect x="318.4" y="287.9" class="st2" width="20.3" height="20.3"/>
	<rect x="338.7" y="287.9" class="st2" width="20.3" height="20.3"/>
	<rect x="359" y="287.9" class="st2" width="20.3" height="20.3"/>
	<rect x="379.4" y="287.9" class="st2" width="20.3" height="20.3"/>
	<rect x="399.7" y="287.9" class="st2" width="20.3" height="20.3"/>
	<rect x="420" y="287.9" class="st2" width="20.3" height="20.3"/>
	<rect x="440.4" y="287.9" class="st2" width="20.3" height="20.3"/>
	<rect x="460.7" y="287.9" class="st2" width="20.3" height="20.3"/>
	<rect x="13.4" y="308.1" class="st2" width="20.3" height="20.3"/>
	<rect x="33.8" y="308.1" class="st2" width="20.3" height="20.3"/>
	<rect x="54.1" y="308.1" class="st2" width="20.3" height="20.3"/>
	<rect x="74.4" y="308.1" class="st2" width="20.3" height="20.3"/>
	<rect x="94.8" y="308.1" class="st2" width="20.3" height="20.3"/>
	<rect x="115.1" y="308.1" class="st2" width="20.3" height="20.3"/>
	<rect x="135.4" y="308.1" class="st2" width="20.3" height="20.3"/>
	<rect x="155.7" y="308.1" class="st2" width="20.3" height="20.3"/>
	<rect x="176.1" y="308.1" class="st2" width="20.3" height="20.3"/>
	<rect x="196.4" y="308.1" class="st2" width="20.3" height="20.3"/>
	<rect x="216.7" y="308.1" class="st2" width="20.3" height="20.3"/>
	<rect x="237.1" y="308.1" class="st2" width="20.3" height="20.3"/>
	<rect x="257.4" y="308.1" class="st2" width="20.3" height="20.3"/>
	<rect x="277.7" y="308.1" class="st2" width="20.3" height="20.3"/>
	<rect x="298.1" y="308.1" class="st2" width="20.3" height="20.3"/>
	<rect x="318.4" y="308.1" class="st2" width="20.3" height="20.3"/>
	<rect x="338.7" y="308.1" class="st2" width="20.3" height="20.3"/>
	<rect x="359" y="308.1" class="st2" width="20.3" height="20.3"/>
	<rect x="379.4" y="308.1" class="st2" width="20.3" height="20.3"/>
	<rect x="399.7" y="308.1" class="st2" width="20.3" height="20.3"/>
	<rect x="420" y="308.1" class="st2" width="20.3" height="20.3"/>
	<rect x="440.4" y="308.1" class="st2" width="20.3" height="20.3"/>
	<rect x="460.7" y="308.1" class="st2" width="20.3" height="20.3"/>
	<rect x="13.4" y="328.4" class="st2" width="20.3" height="20.3"/>
	<rect x="33.8" y="328.4" class="st2" width="20.3" height="20.3"/>
	<rect x="54.1" y="328.4" class="st2" width="20.3" height="20.3"/>
	<rect x="74.4" y="328.4" class="st2" width="20.3" height="20.3"/>
	<rect x="94.8" y="328.4" class="st2" width="20.3" height="20.3"/>
	<rect x="115.1" y="328.4" class="st2" width="20.3" height="20.3"/>
	<rect x="135.4" y="328.4" class="st2" width="20.3" height="20.3"/>
	<rect x="155.7" y="328.4" class="st2" width="20.3" height="20.3"/>
	<rect x="176.1" y="328.4" class="st2" width="20.3" height="20.3"/>
	<rect x="196.4" y="328.4" class="st2" width="20.3" height="20.3"/>
	<rect x="216.7" y="328.4" class="st2" width="20.3" height="20.3"/>
	<rect x="237.1" y="328.4" class="st2" width="20.3" height="20.3"/>
	<rect x="257.4" y="328.4" class="st2" width="20.3" height="20.3"/>
	<rect x="277.7" y="328.4" class="st2" width="20.3" height="20.3"/>
	<rect x="298.1" y="328.4" class="st2" width="20.3" height="20.3"/>
	<rect x="318.4" y="328.4" class="st2" width="20.3" height="20.3"/>
	<rect x="338.7" y="328.4" class="st2" width="20.3" height="20.3"/>
	<rect x="359" y="328.4" class="st2" width="20.3" height="20.3"/>
	<rect x="379.4" y="328.4" class="st2" width="20.3" height="20.3"/>
	<rect x="399.7" y="328.4" class="st2" width="20.3" height="20.3"/>
	<rect x="420" y="328.4" class="st2" width="20.3" height="20.3"/>
	<rect x="440.4" y="328.4" class="st2" width="20.3" height="20.3"/>
	<rect x="460.7" y="328.4" class="st2" width="20.3" height="20.3"/>
</g>
<path class="st3" d="M28.3,302.7c58.9,0,45.7,0,138,0s50.3-167.7,155.7-167.7S405.3,117,481.5,117"/>
<path class="st4" d="M12.9,302.7c60.9,0,47.3,0,142.7,0s52-175.4,161-175.4s86-18.8,164.9-18.8"/>
<path class="st5" d="M12.9,302.6c54.2,0,42,0,126.9,0S186,115.7,283,115.7s76.5-26.8,146.6-26.8c18.3,0,52,0,52,0"/>
<rect x="12.9" y="316" class="st0" width="468.6" height="33.2"/>
<rect x="12.9" y="44.2" class="st6" width="468.6" height="305"/>
<g>
	<polyline class="st7" points="51.1,82.1 36.7,148.7 71.7,135.7 106.7,148.7 95.1,82.1 	"/>
	<polyline class="st7" points="57.4,86.3 47.4,132.6 71.7,123.5 96.1,132.6 88,86.3 	"/>
	<circle class="st7" cx="72.7" cy="49.7" r="39"/>
	<circle class="st8" cx="72.7" cy="49.7" r="29"/>
</g>
</svg>
